<svg xmlns="http://www.w3.org/2000/svg" version="1.1" viewBox="-5.0 -10.0 110.0 135.0">
 <path d="m28.809 74.996-8.3516 18.098c-0.36328 0.78516-0.019531 1.7109 0.76172 2.0742 0.78516 0.36328 1.7109 0.019531 2.0742-0.76172l1.7422-3.7812h49.926l1.7422 3.7812c0.36328 0.78125 1.2891 1.125 2.0742 0.76172 0.78125-0.36328 1.125-1.2891 0.76172-2.0742l-6.1289-13.273c-0.046875-0.28125-0.16797-0.53516-0.34375-0.74219l-1.8828-4.0781c2.2383-0.039062 4.375-0.94922 5.9609-2.5352 1.625-1.625 2.5391-3.8281 2.5391-6.125v-51.086c0-2.8047-1.1133-5.4922-3.0938-7.4727-1.9805-1.9805-4.668-3.0938-7.4727-3.0938h-38.242c-2.8047 0-5.4922 1.1133-7.4727 3.0938-1.9805 1.9805-3.0938 4.668-3.0938 7.4727v51.086c0 2.2969 0.91406 4.5 2.5391 6.125 1.5859 1.5859 3.7227 2.4922 5.9609 2.5352zm42.008 6.6445h-41.633l-2.7031 5.8594h47.039zm-3.0664-6.6406h-6.8125v-9.375c0-0.86328-0.69922-1.5625-1.5625-1.5625h-18.75c-0.86328 0-1.5625 0.69922-1.5625 1.5625v9.375h-6.8125l-1.6211 3.5156h38.742zm-25.562 0v-7.8125h15.625v7.8125zm-9.1602-21.875c-3.5703 0-6.4648 2.8984-6.4648 6.4648 0 3.5703 2.8984 6.4688 6.4648 6.4688 3.5703 0 6.4688-2.8984 6.4688-6.4688 0-3.5703-2.8984-6.4648-6.4688-6.4648zm33.945 0c-3.5703 0-6.4688 2.8984-6.4688 6.4648 0 3.5703 2.8984 6.4688 6.4688 6.4688 3.5703 0 6.4648-2.8984 6.4648-6.4688 0-3.5703-2.8984-6.4648-6.4648-6.4648zm6.4648-35.348c0-1.8125-0.72266-3.5547-2.0039-4.8359-1.2852-1.2812-3.0234-2.0039-4.8359-2.0039h-33.195c-1.8125 0-3.5547 0.72266-4.8359 2.0039-1.2812 1.2852-2.0039 3.0234-2.0039 4.8359v29.098c0 0.86328 0.69922 1.5625 1.5625 1.5625h43.75c0.86328 0 1.5625-0.69922 1.5625-1.5625z" fill-rule="evenodd"/>
<text x="0.0" y="117.5" font-size="5.0" font-weight="bold" font-family="Arbeit Regular, Helvetica, Arial-Unicode, Arial, Sans-serif" fill="#000000">Created by Firza Alamsyah</text><text x="0.0" y="122.5" font-size="5.0" font-weight="bold" font-family="Arbeit Regular, Helvetica, Arial-Unicode, Arial, Sans-serif" fill="#000000">from Noun Project</text></svg>