<svg xmlns="http://www.w3.org/2000/svg" xmlns:xlink="http://www.w3.org/1999/xlink" xml:space="preserve" version="1.1" x="0px" y="0px" viewBox="0 0 100 125"><path d="M85,35L15,35C12.239,35,10,37.239,10,40L10,60L90,60L90,40C90,37.239,87.761,35,85,35ZM25,55L15,55L15,40L25,40L25,55ZM40,50L30,50L30,40L40,40L40,50ZM55,50L45,50L45,40L55,40L55,50ZM70,50L60,50L60,40L70,40L70,50ZM85,55L75,55L75,40L85,40L85,55Z" stroke="none"/><path d="M10,65L10,69.846L15.016,69.846C15.014,69.899,15,69.947,15,70C15,72.761,17.239,75,20,75S25,72.761,25,70L30,70C30,72.761,32.239,75,35,75S40,72.761,40,70C40,69.947,39.986,69.899,39.984,69.846L60.015,69.846C60.014,69.899,60,69.947,60,70C60,72.761,62.239,75,65,75S70,72.761,70,70L75,70C75,72.761,77.239,75,80,75S85,72.761,85,70C85,69.947,84.986,69.899,84.984,69.846L90,69.846L90,65L10,65Z" stroke="none"/><text x="0" y="115" fill="#000000" font-size="5px" font-weight="bold" font-family="'Helvetica Neue', Helvetica, Arial-Unicode, Arial, Sans-serif">Created by Arthur Shlain</text><text x="0" y="120" fill="#000000" font-size="5px" font-weight="bold" font-family="'Helvetica Neue', Helvetica, Arial-Unicode, Arial, Sans-serif">from the Noun Project</text></svg>